<mxfile host="app.diagrams.net" agent="Mozilla/5.0 (Windows NT 10.0; Win64; x64) AppleWebKit/537.36 (KHTML, like Gecko) Chrome/131.0.0.0 Safari/537.36 OPR/116.0.0.0" version="26.0.11">
  <diagram name="Сторінка-1" id="2qlWJzpFMfT5cVVhCap1">
    <mxGraphModel dx="4033" dy="2113" grid="1" gridSize="10" guides="1" tooltips="1" connect="1" arrows="1" fold="1" page="1" pageScale="1" pageWidth="5000" pageHeight="4000" math="0" shadow="0">
      <root>
        <mxCell id="0" />
        <mxCell id="1" parent="0" />
        <mxCell id="iwZVITusNoV1ZPCKNUhb-1" value="&lt;font style=&quot;font-size: 18px;&quot;&gt;Starting game&lt;/font&gt;" style="rounded=1;whiteSpace=wrap;html=1;" vertex="1" parent="1">
          <mxGeometry x="170" y="1790" width="120" height="60" as="geometry" />
        </mxCell>
        <mxCell id="iwZVITusNoV1ZPCKNUhb-2" value="&lt;font style=&quot;font-size: 32px;&quot;&gt;Game menu logic&lt;/font&gt;" style="rounded=0;whiteSpace=wrap;html=1;verticalAlign=top;" vertex="1" parent="1">
          <mxGeometry x="400" y="1595" width="800" height="450" as="geometry" />
        </mxCell>
        <mxCell id="iwZVITusNoV1ZPCKNUhb-3" value="&lt;span style=&quot;font-size: 32px;&quot;&gt;Setting logic&lt;/span&gt;" style="rounded=0;whiteSpace=wrap;html=1;verticalAlign=bottom;" vertex="1" parent="1">
          <mxGeometry x="620" y="2150" width="330" height="510" as="geometry" />
        </mxCell>
        <mxCell id="iwZVITusNoV1ZPCKNUhb-4" value="&lt;font style=&quot;font-size: 34px;&quot;&gt;Gameplay logic&lt;/font&gt;" style="rounded=0;whiteSpace=wrap;html=1;verticalAlign=top;" vertex="1" parent="1">
          <mxGeometry x="2380" y="510" width="1170" height="720" as="geometry" />
        </mxCell>
        <mxCell id="iwZVITusNoV1ZPCKNUhb-5" value="&lt;font style=&quot;font-size: 32px;&quot;&gt;UI level logic&lt;/font&gt;" style="rounded=0;whiteSpace=wrap;html=1;verticalAlign=bottom;" vertex="1" parent="1">
          <mxGeometry x="1480" y="2419" width="670" height="410" as="geometry" />
        </mxCell>
        <mxCell id="iwZVITusNoV1ZPCKNUhb-6" value="&lt;font style=&quot;font-size: 18px;&quot;&gt;Exiting game&lt;/font&gt;" style="rounded=1;whiteSpace=wrap;html=1;" vertex="1" parent="1">
          <mxGeometry x="1310" y="2330" width="120" height="60" as="geometry" />
        </mxCell>
        <mxCell id="iwZVITusNoV1ZPCKNUhb-13" style="edgeStyle=orthogonalEdgeStyle;rounded=0;orthogonalLoop=1;jettySize=auto;html=1;exitX=1;exitY=0.25;exitDx=0;exitDy=0;entryX=0;entryY=0.5;entryDx=0;entryDy=0;" edge="1" parent="1" source="iwZVITusNoV1ZPCKNUhb-7" target="iwZVITusNoV1ZPCKNUhb-8">
          <mxGeometry relative="1" as="geometry" />
        </mxCell>
        <mxCell id="iwZVITusNoV1ZPCKNUhb-14" style="edgeStyle=orthogonalEdgeStyle;rounded=0;orthogonalLoop=1;jettySize=auto;html=1;exitX=1;exitY=0.5;exitDx=0;exitDy=0;entryX=0;entryY=0.5;entryDx=0;entryDy=0;" edge="1" parent="1" source="iwZVITusNoV1ZPCKNUhb-7" target="iwZVITusNoV1ZPCKNUhb-9">
          <mxGeometry relative="1" as="geometry" />
        </mxCell>
        <mxCell id="iwZVITusNoV1ZPCKNUhb-15" style="edgeStyle=orthogonalEdgeStyle;rounded=0;orthogonalLoop=1;jettySize=auto;html=1;exitX=1;exitY=0.75;exitDx=0;exitDy=0;entryX=0;entryY=0.5;entryDx=0;entryDy=0;" edge="1" parent="1" source="iwZVITusNoV1ZPCKNUhb-7" target="iwZVITusNoV1ZPCKNUhb-10">
          <mxGeometry relative="1" as="geometry" />
        </mxCell>
        <mxCell id="iwZVITusNoV1ZPCKNUhb-7" value="&lt;font style=&quot;font-size: 18px;&quot;&gt;Show game menu&lt;/font&gt;" style="rounded=1;whiteSpace=wrap;html=1;" vertex="1" parent="1">
          <mxGeometry x="420" y="1790" width="150" height="70" as="geometry" />
        </mxCell>
        <mxCell id="iwZVITusNoV1ZPCKNUhb-16" style="edgeStyle=orthogonalEdgeStyle;rounded=0;orthogonalLoop=1;jettySize=auto;html=1;exitX=1;exitY=0.5;exitDx=0;exitDy=0;entryX=0;entryY=0.5;entryDx=0;entryDy=0;" edge="1" parent="1" source="iwZVITusNoV1ZPCKNUhb-8" target="iwZVITusNoV1ZPCKNUhb-12">
          <mxGeometry relative="1" as="geometry" />
        </mxCell>
        <mxCell id="iwZVITusNoV1ZPCKNUhb-8" value="&lt;font style=&quot;font-size: 18px;&quot;&gt;Press Play&lt;/font&gt;" style="rounded=0;whiteSpace=wrap;html=1;" vertex="1" parent="1">
          <mxGeometry x="680" y="1700" width="150" height="60" as="geometry" />
        </mxCell>
        <mxCell id="iwZVITusNoV1ZPCKNUhb-18" style="edgeStyle=orthogonalEdgeStyle;rounded=0;orthogonalLoop=1;jettySize=auto;html=1;exitX=1;exitY=0.5;exitDx=0;exitDy=0;entryX=0.75;entryY=0;entryDx=0;entryDy=0;" edge="1" parent="1" source="iwZVITusNoV1ZPCKNUhb-9" target="iwZVITusNoV1ZPCKNUhb-3">
          <mxGeometry relative="1" as="geometry" />
        </mxCell>
        <mxCell id="iwZVITusNoV1ZPCKNUhb-9" value="&lt;br&gt;&lt;span style=&quot;color: rgb(0, 0, 0); font-family: Helvetica; font-size: 18px; font-style: normal; font-variant-ligatures: normal; font-variant-caps: normal; font-weight: 400; letter-spacing: normal; orphans: 2; text-align: center; text-indent: 0px; text-transform: none; widows: 2; word-spacing: 0px; -webkit-text-stroke-width: 0px; white-space: normal; background-color: rgb(251, 251, 251); text-decoration-thickness: initial; text-decoration-style: initial; text-decoration-color: initial; float: none; display: inline !important;&quot;&gt;Press Setting&lt;/span&gt;" style="rounded=0;whiteSpace=wrap;html=1;fontStyle=0" vertex="1" parent="1">
          <mxGeometry x="680" y="1795" width="150" height="60" as="geometry" />
        </mxCell>
        <mxCell id="iwZVITusNoV1ZPCKNUhb-17" style="edgeStyle=orthogonalEdgeStyle;rounded=0;orthogonalLoop=1;jettySize=auto;html=1;exitX=1;exitY=0.5;exitDx=0;exitDy=0;entryX=0;entryY=0.5;entryDx=0;entryDy=0;" edge="1" parent="1" source="iwZVITusNoV1ZPCKNUhb-10" target="iwZVITusNoV1ZPCKNUhb-6">
          <mxGeometry relative="1" as="geometry" />
        </mxCell>
        <mxCell id="iwZVITusNoV1ZPCKNUhb-10" value="&lt;span style=&quot;font-size: 18px;&quot;&gt;Press Exit&lt;/span&gt;" style="rounded=0;whiteSpace=wrap;html=1;" vertex="1" parent="1">
          <mxGeometry x="680" y="1900" width="150" height="60" as="geometry" />
        </mxCell>
        <mxCell id="iwZVITusNoV1ZPCKNUhb-41" style="edgeStyle=orthogonalEdgeStyle;rounded=0;orthogonalLoop=1;jettySize=auto;html=1;exitX=1;exitY=0.5;exitDx=0;exitDy=0;" edge="1" parent="1" source="iwZVITusNoV1ZPCKNUhb-12" target="iwZVITusNoV1ZPCKNUhb-25">
          <mxGeometry relative="1" as="geometry" />
        </mxCell>
        <mxCell id="iwZVITusNoV1ZPCKNUhb-12" value="&lt;font style=&quot;font-size: 18px;&quot;&gt;Transfer to game levels&lt;/font&gt;" style="rounded=1;whiteSpace=wrap;html=1;" vertex="1" parent="1">
          <mxGeometry x="980" y="1695" width="170" height="70" as="geometry" />
        </mxCell>
        <mxCell id="iwZVITusNoV1ZPCKNUhb-19" value="&lt;font style=&quot;font-size: 18px;&quot;&gt;Speed change&lt;/font&gt;" style="rounded=0;whiteSpace=wrap;html=1;" vertex="1" parent="1">
          <mxGeometry x="700" y="2198" width="185" height="72" as="geometry" />
        </mxCell>
        <mxCell id="iwZVITusNoV1ZPCKNUhb-20" value="&lt;font style=&quot;font-size: 18px;&quot;&gt;Snakes color change&lt;/font&gt;" style="rounded=0;whiteSpace=wrap;html=1;" vertex="1" parent="1">
          <mxGeometry x="700" y="2310" width="185" height="72" as="geometry" />
        </mxCell>
        <mxCell id="iwZVITusNoV1ZPCKNUhb-21" value="&lt;font style=&quot;font-size: 18px;&quot;&gt;Change language (Enh/Uk)&lt;/font&gt;" style="rounded=0;whiteSpace=wrap;html=1;" vertex="1" parent="1">
          <mxGeometry x="700" y="2419" width="185" height="72" as="geometry" />
        </mxCell>
        <mxCell id="iwZVITusNoV1ZPCKNUhb-22" value="&lt;font style=&quot;font-size: 34px;&quot;&gt;Gameplay logic&lt;/font&gt;" style="rounded=0;whiteSpace=wrap;html=1;verticalAlign=top;" vertex="1" parent="1">
          <mxGeometry x="2380" y="1310" width="1170" height="720" as="geometry" />
        </mxCell>
        <mxCell id="iwZVITusNoV1ZPCKNUhb-23" value="&lt;font style=&quot;font-size: 34px;&quot;&gt;Gameplay logic&lt;/font&gt;" style="rounded=0;whiteSpace=wrap;html=1;verticalAlign=top;" vertex="1" parent="1">
          <mxGeometry x="2400" y="2120" width="1170" height="720" as="geometry" />
        </mxCell>
        <mxCell id="iwZVITusNoV1ZPCKNUhb-24" value="&lt;font style=&quot;font-size: 32px;&quot;&gt;Sub-menu for selecting game levels&lt;/font&gt;" style="rounded=0;whiteSpace=wrap;html=1;verticalAlign=top;fillColor=none;" vertex="1" parent="1">
          <mxGeometry x="1330" y="1420" width="660" height="710" as="geometry" />
        </mxCell>
        <mxCell id="iwZVITusNoV1ZPCKNUhb-30" style="edgeStyle=orthogonalEdgeStyle;rounded=0;orthogonalLoop=1;jettySize=auto;html=1;exitX=1;exitY=0;exitDx=0;exitDy=0;entryX=0;entryY=0.5;entryDx=0;entryDy=0;" edge="1" parent="1" source="iwZVITusNoV1ZPCKNUhb-25" target="iwZVITusNoV1ZPCKNUhb-26">
          <mxGeometry relative="1" as="geometry" />
        </mxCell>
        <mxCell id="iwZVITusNoV1ZPCKNUhb-31" style="edgeStyle=orthogonalEdgeStyle;rounded=0;orthogonalLoop=1;jettySize=auto;html=1;exitX=1;exitY=0.25;exitDx=0;exitDy=0;entryX=0;entryY=0.5;entryDx=0;entryDy=0;" edge="1" parent="1" source="iwZVITusNoV1ZPCKNUhb-25" target="iwZVITusNoV1ZPCKNUhb-27">
          <mxGeometry relative="1" as="geometry" />
        </mxCell>
        <mxCell id="iwZVITusNoV1ZPCKNUhb-32" style="edgeStyle=orthogonalEdgeStyle;rounded=0;orthogonalLoop=1;jettySize=auto;html=1;exitX=1;exitY=0.5;exitDx=0;exitDy=0;entryX=0;entryY=0.5;entryDx=0;entryDy=0;" edge="1" parent="1" source="iwZVITusNoV1ZPCKNUhb-25" target="iwZVITusNoV1ZPCKNUhb-28">
          <mxGeometry relative="1" as="geometry" />
        </mxCell>
        <mxCell id="iwZVITusNoV1ZPCKNUhb-33" style="edgeStyle=orthogonalEdgeStyle;rounded=0;orthogonalLoop=1;jettySize=auto;html=1;exitX=1;exitY=0.75;exitDx=0;exitDy=0;entryX=0;entryY=0.5;entryDx=0;entryDy=0;" edge="1" parent="1" source="iwZVITusNoV1ZPCKNUhb-25" target="iwZVITusNoV1ZPCKNUhb-29">
          <mxGeometry relative="1" as="geometry">
            <Array as="points">
              <mxPoint x="1540" y="1748" />
              <mxPoint x="1540" y="1965" />
            </Array>
          </mxGeometry>
        </mxCell>
        <mxCell id="iwZVITusNoV1ZPCKNUhb-25" value="&lt;font style=&quot;font-size: 18px;&quot;&gt;Nothing happen&lt;/font&gt;" style="rounded=1;whiteSpace=wrap;html=1;" vertex="1" parent="1">
          <mxGeometry x="1350" y="1695" width="150" height="70" as="geometry" />
        </mxCell>
        <mxCell id="iwZVITusNoV1ZPCKNUhb-26" value="&lt;font style=&quot;font-size: 18px;&quot;&gt;&quot;Standard game&quot;&lt;/font&gt;" style="rounded=0;whiteSpace=wrap;html=1;" vertex="1" parent="1">
          <mxGeometry x="1610" y="1530" width="280" height="90" as="geometry" />
        </mxCell>
        <mxCell id="iwZVITusNoV1ZPCKNUhb-27" value="&lt;font style=&quot;font-size: 18px;&quot;&gt;&quot;Game with restrictions&quot;&lt;/font&gt;" style="rounded=0;whiteSpace=wrap;html=1;" vertex="1" parent="1">
          <mxGeometry x="1610" y="1660" width="280" height="90" as="geometry" />
        </mxCell>
        <mxCell id="iwZVITusNoV1ZPCKNUhb-28" value="&lt;font style=&quot;font-size: 18px;&quot;&gt;&quot;Two-player game (game with restrictions)&quot;&lt;/font&gt;" style="rounded=0;whiteSpace=wrap;html=1;" vertex="1" parent="1">
          <mxGeometry x="1615" y="1790" width="280" height="90" as="geometry" />
        </mxCell>
        <mxCell id="iwZVITusNoV1ZPCKNUhb-29" value="&lt;font style=&quot;font-size: 18px;&quot;&gt;Press menu button&lt;/font&gt;" style="rounded=0;whiteSpace=wrap;html=1;" vertex="1" parent="1">
          <mxGeometry x="1615" y="1920" width="280" height="90" as="geometry" />
        </mxCell>
      </root>
    </mxGraphModel>
  </diagram>
</mxfile>
